<?xml version="1.0" encoding="UTF-8" standalone="no"?>
<!-- Created with Inkscape (http://www.inkscape.org/) -->

<svg
   width="210mm"
   height="210mm"
   viewBox="0 0 210 210"
   version="1.1"
   id="svg1"
   xml:space="preserve"
   xmlns="http://www.w3.org/2000/svg"
   xmlns:svg="http://www.w3.org/2000/svg"><defs
     id="defs1"><clipPath
       clipPathUnits="userSpaceOnUse"
       id="clipPath3"><rect
         style="display:none;fill:#ffffff;fill-opacity:1;stroke:none;stroke-width:1.04518;stroke-dasharray:none"
         id="rect3"
         width="108.84698"
         height="108.84698"
         x="50.576511"
         y="50.576511"
         rx="54.423496"
         d="m 105,50.576511 c 30.15061,0 54.42349,24.272876 54.42349,54.423489 0,30.15061 -24.27288,54.42349 -54.42349,54.42349 -30.150613,0 -54.423489,-24.27288 -54.423489,-54.42349 0,-30.150613 24.272876,-54.423489 54.423489,-54.423489 z" /><path
         id="lpe_path-effect3"
         style="fill:#ffffff;fill-opacity:1;stroke:none;stroke-width:1.04518;stroke-dasharray:none"
         class="powerclip"
         d="M 28.269279,28.269279 H 181.73072 V 181.73072 H 28.269279 Z M 105,50.576511 c -30.150613,0 -54.423489,24.272876 -54.423489,54.423489 0,30.15061 24.272876,54.42349 54.423489,54.42349 30.15061,0 54.42349,-24.27288 54.42349,-54.42349 0,-30.150613 -24.27288,-54.423489 -54.42349,-54.423489 z" /></clipPath></defs><g
     id="layer1"><path
       d="m 16.782802,61.362366 c -0.01442,0.223896 -0.119463,0.382931 -0.234943,0.355227 -0.115499,-0.0277 -0.197501,-0.231661 -0.183212,-0.455553 0.01442,-0.223895 0.119462,-0.382931 0.234961,-0.355227 0.115499,0.0277 0.197482,0.231663 0.183194,0.455553 z"
       fill-opacity="0.777"
       opacity="0.3"
       id="path4"
       style="fill:#c1c1c1;fill-opacity:1;stroke-width:0.476738" /><circle
       style="font-variation-settings:'wght' 700;fill:#ffffff;fill-opacity:1;stroke:#ffffff;stroke-width:7.56798;stroke-dasharray:none;stroke-opacity:1"
       id="path7-3"
       cx="104.83024"
       cy="104.94363"
       r="75.487053" /><rect
       style="fill:#a8c256;fill-opacity:1;stroke:none;stroke-width:0.965463;stroke-dasharray:none;stroke-opacity:1"
       id="rect4"
       width="26.640682"
       height="52.589363"
       x="41.510838"
       y="126.81879"
       rx="3.3750839" /><rect
       style="fill:#deb472;fill-opacity:1;stroke:none;stroke-width:1.26405;stroke-dasharray:none;stroke-opacity:1"
       id="rect4-1"
       width="26.640682"
       height="90.14801"
       x="74.843536"
       y="99.147415"
       rx="3.3750839" /><rect
       style="fill:#c52d29;fill-opacity:1;stroke:none;stroke-width:1.58491;stroke-dasharray:none;stroke-opacity:1"
       id="rect4-5"
       width="26.640682"
       height="141.72079"
       x="108.17625"
       y="45.926743"
       rx="3.3750839" /><rect
       style="fill:#e08292;fill-opacity:1;stroke:none;stroke-width:1.38146;stroke-dasharray:none;stroke-opacity:1"
       id="rect4-7"
       width="26.640682"
       height="107.67383"
       x="141.50894"
       y="75.579384"
       rx="3.3750839" /><path
       style="fill:#3d1b00;fill-opacity:1;stroke:none;stroke-width:1.18323;stroke-dasharray:none;stroke-opacity:1"
       id="rect1"
       width="143.46144"
       height="143.46144"
       x="33.269279"
       y="33.269279"
       rx="71.730721"
       clip-path="url(#clipPath3)"
       d="m 105,33.269279 c 39.73882,0 71.73072,31.991902 71.73072,71.730721 0,39.73882 -31.9919,71.73072 -71.73072,71.73072 -39.738819,0 -71.730721,-31.9919 -71.730721,-71.73072 0,-39.738819 31.991902,-71.730721 71.730721,-71.730721 z"
       transform="matrix(1.4518336,0,0,1.4518336,-47.442533,-47.442533)" /><circle
       style="font-variation-settings:'wght' 700;fill:none;fill-opacity:1;stroke:#ffffff;stroke-width:6.33654;stroke-dasharray:none;stroke-opacity:1"
       id="path7"
       cx="105"
       cy="105.93495"
       r="76.438919" /></g></svg>
